<svg xmlns="http://www.w3.org/2000/svg" viewBox="0 0 64 64" fill="none" role="img" aria-label="K9 Genetix">
  <rect width="64" height="64" rx="14" fill="#0b0d10"/>
  <path d="M18 14c0 0 4 6 4 18s-4 18-4 18" stroke="#19c6e6" stroke-width="2.2" stroke-linecap="round"/>
  <path d="M46 14c0 0-4 6-4 18s4 18 4 18" stroke="#19c6e6" stroke-width="2.2" stroke-linecap="round"/>
  <circle cx="22" cy="24" r="3.2" fill="#c5cdd4"/>
  <circle cx="42" cy="32" r="3.2" fill="#c5cdd4"/>
  <circle cx="22" cy="40" r="3.2" fill="#c5cdd4"/>
  <path d="M22 24h20M42 32H22M22 40h20" stroke="#19c6e6" stroke-width="1.4" stroke-opacity=".55"/>
  <path d="M28 50.5c1.2-2.8 3.4-4.2 4-4.2s2.8 1.4 4 4.2c.4.9-.2 1.5-1.1 1.5h-5.8c-.9 0-1.5-.6-1.1-1.5z" fill="#19c6e6" opacity=".9"/>
  <circle cx="29.2" cy="48.2" r="1.1" fill="#050608"/>
  <circle cx="34.8" cy="48.2" r="1.1" fill="#050608"/>
</svg>
